<mxfile host="app.diagrams.net" agent="Mozilla/5.0 (Macintosh; Intel Mac OS X 10_15_7) AppleWebKit/537.36 (KHTML, like Gecko) Chrome/138.0.0.0 Safari/537.36" version="28.0.6">
  <diagram name="Page-1" id="fw_HwSV4kMs2ocKY94k7">
    <mxGraphModel dx="801" dy="609" grid="1" gridSize="10" guides="1" tooltips="1" connect="1" arrows="1" fold="1" page="1" pageScale="1" pageWidth="850" pageHeight="1100" math="1" shadow="0">
      <root>
        <mxCell id="0" />
        <mxCell id="1" parent="0" />
        <mxCell id="pEMfgVXBG00LeKvRpqXS-1" value="&lt;font face=&quot;Lucida Console&quot; style=&quot;color: rgb(0, 0, 0); font-size: 25px;&quot;&gt;&lt;span style=&quot;white-space: pre; background-color: rgb(255, 255, 255);&quot;&gt;P&lt;sub style=&quot;&quot;&gt;i&lt;/sub&gt;&lt;/span&gt;&lt;/font&gt;" style="ellipse;whiteSpace=wrap;html=1;aspect=fixed;strokeWidth=1.5;" parent="1" vertex="1">
          <mxGeometry x="200" y="520" width="80" height="80" as="geometry" />
        </mxCell>
        <mxCell id="pEMfgVXBG00LeKvRpqXS-2" value="&lt;div&gt;&lt;font face=&quot;Lucida Console&quot; style=&quot;font-size: 25px;&quot;&gt;&amp;nbsp;D&lt;sub style=&quot;&quot;&gt;i&lt;/sub&gt;&lt;/font&gt;&lt;/div&gt;" style="ellipse;whiteSpace=wrap;html=1;aspect=fixed;strokeWidth=1.5;" parent="1" vertex="1">
          <mxGeometry x="520" y="520" width="80" height="80" as="geometry" />
        </mxCell>
        <mxCell id="pEMfgVXBG00LeKvRpqXS-3" value="&lt;font face=&quot;Lucida Console&quot; style=&quot;font-size: 25px;&quot;&gt;S&lt;sub style=&quot;&quot;&gt;i&lt;/sub&gt;&lt;/font&gt;" style="ellipse;whiteSpace=wrap;html=1;aspect=fixed;strokeWidth=1.5;" parent="1" vertex="1">
          <mxGeometry x="360" y="280" width="80" height="80" as="geometry" />
        </mxCell>
        <mxCell id="pEMfgVXBG00LeKvRpqXS-4" value="" style="endArrow=classic;html=1;rounded=0;exitX=0;exitY=1;exitDx=0;exitDy=0;strokeWidth=2;" parent="1" source="pEMfgVXBG00LeKvRpqXS-3" target="pEMfgVXBG00LeKvRpqXS-1" edge="1">
          <mxGeometry width="50" height="50" relative="1" as="geometry">
            <mxPoint x="400" y="530" as="sourcePoint" />
            <mxPoint x="450" y="480" as="targetPoint" />
          </mxGeometry>
        </mxCell>
        <mxCell id="HUb-ImUx4MN_3dcU-4xX-6" value="&lt;font face=&quot;Lucida Console&quot;&gt;&lt;span style=&quot;font-size: 25px;&quot; class=&quot;mord mathnormal&quot;&gt;α&lt;/span&gt;&lt;span style=&quot;font-size: 25px;&quot; class=&quot;msupsub&quot;&gt;&lt;sub&gt;&lt;span class=&quot;sizing reset-size6 size3 mtight&quot;&gt;PS&lt;/span&gt;&lt;/sub&gt;&lt;/span&gt;&lt;/font&gt;" style="edgeLabel;html=1;align=center;verticalAlign=middle;resizable=0;points=[];" vertex="1" connectable="0" parent="pEMfgVXBG00LeKvRpqXS-4">
          <mxGeometry x="-0.0093" y="1" relative="1" as="geometry">
            <mxPoint as="offset" />
          </mxGeometry>
        </mxCell>
        <mxCell id="pEMfgVXBG00LeKvRpqXS-5" value="" style="endArrow=classic;html=1;rounded=0;exitX=1;exitY=1;exitDx=0;exitDy=0;strokeWidth=2;entryX=0.25;entryY=0.075;entryDx=0;entryDy=0;entryPerimeter=0;" parent="1" source="pEMfgVXBG00LeKvRpqXS-3" target="pEMfgVXBG00LeKvRpqXS-2" edge="1">
          <mxGeometry width="50" height="50" relative="1" as="geometry">
            <mxPoint x="372" y="358" as="sourcePoint" />
            <mxPoint x="270" y="535" as="targetPoint" />
          </mxGeometry>
        </mxCell>
        <mxCell id="HUb-ImUx4MN_3dcU-4xX-7" value="&lt;font face=&quot;Lucida Console&quot;&gt;&lt;span style=&quot;font-size: 25px;&quot; class=&quot;mord mathnormal&quot;&gt;α&lt;/span&gt;&lt;span style=&quot;font-size: 25px;&quot; class=&quot;msupsub&quot;&gt;&lt;sub&gt;&lt;span class=&quot;sizing reset-size6 size3 mtight&quot;&gt;DS&lt;/span&gt;&lt;/sub&gt;&lt;/span&gt;&lt;/font&gt;" style="edgeLabel;html=1;align=center;verticalAlign=middle;resizable=0;points=[];" vertex="1" connectable="0" parent="pEMfgVXBG00LeKvRpqXS-5">
          <mxGeometry x="0.0214" y="2" relative="1" as="geometry">
            <mxPoint as="offset" />
          </mxGeometry>
        </mxCell>
        <mxCell id="pEMfgVXBG00LeKvRpqXS-6" value="" style="endArrow=classic;html=1;rounded=0;exitX=0.025;exitY=0.388;exitDx=0;exitDy=0;strokeWidth=2;entryX=1;entryY=0.375;entryDx=0;entryDy=0;entryPerimeter=0;exitPerimeter=0;curved=1;" parent="1" source="pEMfgVXBG00LeKvRpqXS-2" target="pEMfgVXBG00LeKvRpqXS-1" edge="1">
          <mxGeometry width="50" height="50" relative="1" as="geometry">
            <mxPoint x="382" y="368" as="sourcePoint" />
            <mxPoint x="280" y="545" as="targetPoint" />
            <Array as="points">
              <mxPoint x="400" y="520" />
            </Array>
          </mxGeometry>
        </mxCell>
        <mxCell id="HUb-ImUx4MN_3dcU-4xX-2" value="&lt;font face=&quot;Lucida Console&quot;&gt;&lt;span style=&quot;font-size: 25px;&quot; class=&quot;mord mathnormal&quot;&gt;α&lt;/span&gt;&lt;span style=&quot;font-size: 25px;&quot; class=&quot;msupsub&quot;&gt;&lt;sub&gt;&lt;span class=&quot;sizing reset-size6 size3 mtight&quot;&gt;&lt;span class=&quot;mord mtight&quot;&gt;&lt;span class=&quot;mord mathnormal mtight&quot;&gt;PD&lt;/span&gt;&lt;/span&gt;&lt;/span&gt;&lt;/sub&gt;&lt;/span&gt;&lt;/font&gt;" style="edgeLabel;html=1;align=center;verticalAlign=middle;resizable=0;points=[];" vertex="1" connectable="0" parent="pEMfgVXBG00LeKvRpqXS-6">
          <mxGeometry x="-0.044" y="10" relative="1" as="geometry">
            <mxPoint as="offset" />
          </mxGeometry>
        </mxCell>
        <mxCell id="pEMfgVXBG00LeKvRpqXS-7" value="" style="endArrow=classic;html=1;rounded=0;exitX=0.988;exitY=0.638;exitDx=0;exitDy=0;strokeWidth=2;entryX=0.038;entryY=0.663;entryDx=0;entryDy=0;exitPerimeter=0;entryPerimeter=0;curved=1;" parent="1" source="pEMfgVXBG00LeKvRpqXS-1" target="pEMfgVXBG00LeKvRpqXS-2" edge="1">
          <mxGeometry width="50" height="50" relative="1" as="geometry">
            <mxPoint x="280" y="572" as="sourcePoint" />
            <mxPoint x="520" y="572" as="targetPoint" />
            <Array as="points">
              <mxPoint x="410" y="600" />
            </Array>
          </mxGeometry>
        </mxCell>
        <mxCell id="HUb-ImUx4MN_3dcU-4xX-3" value="&lt;font face=&quot;Lucida Console&quot; style=&quot;font-size: 25px;&quot;&gt;&lt;span style=&quot;&quot; class=&quot;mord mathnormal&quot;&gt;α&lt;/span&gt;&lt;span style=&quot;&quot; class=&quot;msupsub&quot;&gt;&lt;sub&gt;&lt;span style=&quot;&quot; class=&quot;pstrut&quot;&gt;&lt;/span&gt;&lt;span style=&quot;&quot; class=&quot;sizing reset-size6 size3 mtight&quot;&gt;&lt;span style=&quot;&quot; class=&quot;mord mtight&quot;&gt;&lt;span style=&quot;&quot; class=&quot;mord mathnormal mtight&quot;&gt;D&lt;/span&gt;&lt;span style=&quot;&quot; class=&quot;mord mathnormal mtight&quot;&gt;P&lt;/span&gt;&lt;/span&gt;&lt;/span&gt;&lt;/sub&gt;&lt;/span&gt;&lt;/font&gt;" style="edgeLabel;html=1;align=center;verticalAlign=middle;resizable=0;points=[];" vertex="1" connectable="0" parent="pEMfgVXBG00LeKvRpqXS-7">
          <mxGeometry x="0.0119" y="11" relative="1" as="geometry">
            <mxPoint as="offset" />
          </mxGeometry>
        </mxCell>
      </root>
    </mxGraphModel>
  </diagram>
</mxfile>
